<svg width="23" height="24" fill="none" xmlns="http://www.w3.org/2000/svg"><path id="Vector" d="M22.14 17.7l-2.82-2.99c-.78-.82-2.05-.82-2.83 0l-1.28 1.36c-.59.62-1.55.62-2.14 0L7.5 10.19c-.59-.63-.59-1.64 0-2.26.2-.22.8-.85 1.28-1.36.78-.82.79-2.15 0-2.98L5.96.61c-.78-.82-2.05-.82-2.83 0-.58.61-.77.8-1.03 1.08-2.81 2.96-2.81 7.79 0 10.76l8.83 9.32c2.81 2.97 7.37 2.97 10.19 0l1.02-1.09c.78-.82.78-2.16 0-2.98zM4.07 1.61c.26-.28.68-.28.95 0l2.82 2.97c.26.28.26.72 0 1l-.47.49L3.6 2.1l.47-.49zm7.8 19.16l-8.83-9.32C.87 9.16.75 5.55 2.68 3.11l3.75 3.96c-.98 1.18-.94 2.98.13 4.11l5.56 5.88c1.07 1.13 2.78 1.18 3.9.13l3.75 3.97c-2.31 2.03-5.71 1.92-7.9-.39zm9.33-1.08l-.47.49-3.77-3.98.47-.49c.26-.28.69-.28.95 0l2.82 2.98c.26.28.26.72 0 1z" fill="#FFF" fill-opacity="1" fill-rule="nonzero"/></svg>