<?xml version="1.0" encoding="utf-8"?><svg viewBox="0 0 190 78.37" xmlns="http://www.w3.org/2000/svg" xmlns:xlink="http://www.w3.org/1999/xlink"><style>:root>svg{display:none}:root>svg:target{display:block}</style><svg fill="none" viewBox="0 0 15 10" id="arrow-icon" xmlns="http://www.w3.org/2000/svg"><path d="M6.11 9.23-.68 2a1.23 1.23 0 0 1 0-1.66C-.25-.12.45-.12.88.34l6.01 6.39L12.9.34c.43-.46 1.13-.46 1.56 0 .43.46.43 1.2 0 1.66L7.67 9.23c-.21.23-.5.34-.78.34s-.57-.11-.78-.34Z" fill="#E8AA31"/></svg><svg viewBox="0 0 9 16" id="arrow-icon-white" xmlns="http://www.w3.org/2000/svg"><path d="m8.67 8.67-6.79 6.79c-.43.43-1.13.43-1.56 0-.43-.43-.43-1.13 0-1.56l6.01-6.01L.32 1.88C-.11 1.45-.11.75.32.32c.43-.43 1.13-.43 1.56 0l6.79 6.79a1.083 1.083 0 0 1 0 1.56Z"/></svg><svg viewBox="0 0 9 16" id="arrow-icon_use" xmlns="http://www.w3.org/2000/svg"><path d="m8.67 8.67-6.79 6.79c-.43.43-1.13.43-1.56 0-.43-.43-.43-1.13 0-1.56l6.01-6.01L.32 1.88C-.11 1.45-.11.75.32.32c.43-.43 1.13-.43 1.56 0l6.79 6.79a1.083 1.083 0 0 1 0 1.56Z"/></svg><svg viewBox="0 0 15 15" id="back-icon" xmlns="http://www.w3.org/2000/svg"><path d="m2.34 7.83 5.24 5.24-1.17 1.18L-.85 7 6.41-.26 7.58.92 2.34 6.16h12.15v1.67H2.34Z" fill-rule="evenodd"/></svg><svg fill="none" viewBox="0 0 32 33" id="cart-icon" xmlns="http://www.w3.org/2000/svg"><path d="M7.12 6.76h22.59c.65 0 1.13.62.97 1.25l-1.9 7.44a3.008 3.008 0 0 1-2.91 2.25H9.02M0 .49h4.65c.98 0 1.82.72 1.97 1.69l3.02 18.97c.16.97.99 1.69 1.98 1.69H28.2"/><ellipse cx="13.569" cy="29.266" rx="2.199" ry="2.31"/><ellipse cx="26.546" cy="29.266" rx="2.199" ry="2.31"/></svg><svg viewBox="0 0 28 27" id="heart-like" xmlns="http://www.w3.org/2000/svg"><path d="M20.1 0c-2.39 0-4.62 1.07-6.1 2.87A7.927 7.927 0 0 0 7.89 0C3.54 0 0 3.52 0 7.85c0 3.39 2.03 7.32 6.04 11.66 3.09 3.35 6.44 5.94 7.4 6.65l.56.42.55-.42c.95-.71 4.31-3.3 7.4-6.64C25.96 15.17 28 11.24 28 7.85 28 3.52 24.45 0 20.1 0Zm.49 18.27c-2.54 2.75-5.27 4.98-6.59 6-1.33-1.02-4.06-3.25-6.6-6-3.64-3.94-5.56-7.54-5.56-10.42 0-3.32 2.72-6.02 6.05-6.02 2.2 0 4.23 1.19 5.3 3.11L14 6.39l.8-1.45a6.068 6.068 0 0 1 5.3-3.11c3.33 0 6.05 2.7 6.05 6.02 0 2.88-1.92 6.48-5.56 10.42Z"/></svg><svg viewBox="0 0 78.369 78.369" style="enable-background:new 0 0 78.369 78.369" xml:space="preserve" id="icon-check" xmlns="http://www.w3.org/2000/svg"><path d="M78.049 19.015 29.458 67.606a1.094 1.094 0 0 1-1.548 0L.32 40.015a1.094 1.094 0 0 1 0-1.547l6.704-6.704a1.095 1.095 0 0 1 1.548 0l20.113 20.112 41.113-41.113a1.095 1.095 0 0 1 1.548 0l6.703 6.704a1.094 1.094 0 0 1 0 1.548z"/></svg><svg viewBox="0 0 16 16" id="icon-clock" xmlns="http://www.w3.org/2000/svg"><circle cx="8" cy="8" r="7.5" fill="none"/><rect rx=".5" width="1" height="5" stroke="transparent" transform="matrix(-1 0 0 1 8 4)"/><rect rx=".5" width="1" height="4" stroke="transparent" transform="matrix(0 1 1 0 7 8)"/></svg><svg viewBox="0 0 11 17" id="icon-location-logo" xmlns="http://www.w3.org/2000/svg"><path d="M5.5 0C2.46 0 0 2.6 0 5.79c0 1.08.28 2.14.82 3.05l4.36 7.42c.09.14.23.23.39.23h.01c.15-.01.3-.09.38-.24l4.26-7.49c.51-.89.78-1.92.78-2.97C11 2.6 8.53 0 5.5 0Zm3.93 8.27-3.87 6.8L1.6 8.33C1.15 7.57.91 6.69.91 5.79.91 3.13 2.97.95 5.5.95c2.52 0 4.58 2.18 4.58 4.84 0 .88-.23 1.73-.65 2.48Z" stroke="transparent"/><path d="M5.5 2.44c-1.69 0-3.06 1.37-3.06 3.05A3.06 3.06 0 0 0 5.5 8.55a3.056 3.056 0 0 0 0-6.11Zm0 5.1c-1.13 0-2.05-.92-2.05-2.05 0-1.12.92-2.04 2.05-2.04 1.12 0 2.04.92 2.04 2.04 0 1.11-.9 2.05-2.04 2.05Z" stroke="transparent"/></svg><svg fill="none" viewBox="0 0 18 13" id="icon-mail" xmlns="http://www.w3.org/2000/svg"><path d="m1 1 7.39 5.54c.36.27.85.27 1.21 0L17 1"/><rect x=".5" y=".5" rx="2" width="17" height="12"/></svg><svg viewBox="0 0 9 16" id="icon-next" xmlns="http://www.w3.org/2000/svg"><path d="m8.67 8.67-6.79 6.79c-.43.43-1.13.43-1.56 0-.43-.43-.43-1.13 0-1.56l6.01-6.01L.32 1.88C-.11 1.45-.11.75.32.32c.43-.43 1.13-.43 1.56 0l6.79 6.79a1.083 1.083 0 0 1 0 1.56Z"/></svg><svg viewBox="0 0 15 16" id="icon-phone" xmlns="http://www.w3.org/2000/svg"><path d="m14.61 11.67-1.87-1.96c-.51-.55-1.35-.55-1.86 0l-.85.89a.962.962 0 0 1-1.41 0L4.95 6.72c-.39-.41-.39-1.08 0-1.49.13-.15.52-.56.84-.9.52-.54.52-1.42 0-1.97L3.93.4a1.27 1.27 0 0 0-1.86 0c-.39.4-.51.53-.68.71-1.86 1.96-1.86 5.14 0 7.1l5.82 6.15c1.86 1.96 4.86 1.96 6.72 0l.68-.72c.51-.54.51-1.42 0-1.97ZM2.69 1.06c.17-.18.45-.18.62 0l1.86 1.96c.17.18.17.48 0 .66L4.86 4 2.38 1.38l.31-.32ZM7.83 13.7 2.01 7.55C.57 6.04.49 3.66 1.76 2.05l2.48 2.61c-.65.78-.62 1.97.08 2.72L8 11.26c.7.74 1.83.77 2.57.08l2.47 2.62c-1.52 1.34-3.77 1.27-5.21-.26Zm6.16-.71-.31.33-2.49-2.63.31-.33c.17-.18.45-.18.62 0l1.87 1.97c.17.18.17.48 0 .66Z" stroke="transparent"/></svg><svg fill="none" viewBox="0 0 16.319 7.149" id="icon-spoiler" xmlns="http://www.w3.org/2000/svg"><path d="m8.96.25 7.02 5.4c.45.34.45.89 0 1.24-.45.34-1.17.34-1.62 0L8.15 2.12l-6.2 4.77c-.45.34-1.17.34-1.62 0-.45-.35-.45-.9 0-1.24L7.35.25c.22-.17.51-.25.8-.25.3 0 .59.08.81.25Z" fill="#E8AA31"/></svg><svg viewBox="0 0 17 25" id="location-logo" xmlns="http://www.w3.org/2000/svg"><path d="M8.5 0C3.81 0 0 3.85 0 8.58c0 1.6.43 3.16 1.26 4.51l6.75 10.98c.13.21.36.34.6.34h.01c.25 0 .47-.13.6-.35l6.58-11.08c.78-1.33 1.2-2.85 1.2-4.4C17 3.85 13.18 0 8.5 0Zm6.08 12.24L8.6 22.32l-6.13-9.98A7.226 7.226 0 0 1 1.4 8.58c0-3.95 3.19-7.16 7.1-7.16 3.9 0 7.08 3.21 7.08 7.16 0 1.29-.35 2.56-1 3.66Z"/><path d="M8.49 3.61c-2.6 0-4.72 2.03-4.72 4.52 0 2.48 2.08 4.53 4.72 4.53 2.67 0 4.72-2.08 4.72-4.53 0-2.49-2.11-4.52-4.72-4.52Zm0 7.55c-1.74 0-3.16-1.36-3.16-3.03 0-1.66 1.43-3.02 3.16-3.02 1.74 0 3.15 1.36 3.15 3.02 0 1.65-1.38 3.03-3.15 3.03Z"/></svg><svg fill="none" viewBox="0 0 190 43" id="logo" xmlns="http://www.w3.org/2000/svg"><path d="M95.91 38.35s1.13-.55 3.1-1.28c1.02.49 3.25 1.5 5.41 2.12 2.93.85 4.87.72 7.6.72 2.73 0 6.63-.46 6.63-.46s-.59-2.14-.65-3.7c-.07-1.56-.07-1.82-.07-1.82s-.58 2.21-.45 3.38c.13 1.17.13 1.56.13 1.56s-5.13.52-8.77.13c-3.64-.39-5.85-.78-7.41-1.3-.85-.29-1.67-.53-2.24-.7a63.06 63.06 0 0 1 12.25-3.13c9.09-1.37 7.27-.91 7.27-.91s.2-.39 1.37-.52c1.17-.13 13.12-.72 16.82-.46 3.71.26 13.9.78 15.4 1.76 1.49.97 2.08 1.95 1.62 4.35-.45 2.4-1.36 4.74-2.21 4.22-.84-.52-3.7-2.73-6.43-3.12-2.73-.39-5.71-.32-6.95 0-1.23.33-3.31 1.63-4.29 1.3-.97-.32-2.92-2.14-4.48-1.49-1.56.65-1.62.84-2.34 1.75-.71.91-1.69 1.95-2.46.98-.78-.98-2.21-1.43-3.45-1.5-1.23-.06-2.34.33-2.66.65-.33.33-.78.98-.78.98s-2.01-.52-4.35-.26-6.37.45-9.1-.07c-2.73-.52-8.51-3.18-8.51-3.18Zm24.56.78s2.6-.46 3.57.26c.98.71 1.17 1.3 2.92-.13 1.76-1.43 2.86-2.47 4.81-1.43 1.95 1.04 2.86 1.69 4.74.71 1.89-.97 5.98-2.01 9.42-.58 3.44 1.43 6.11 3.7 6.63 2.27.52-1.43.78-2.99-1.89-3.57-2.66-.58-6.62-1.23-10.26-.65-3.64.58-4.29 2.27-5.78 1.82-1.5-.46-3.12-1.82-4.94-1.11-1.82.72-3.38 2.93-4.87 2.21-1.49-.71-2.53-1.36-3.44-.91-.91.46-.91 1.11-.91 1.11Z" fill="#1F1C21" fill-rule="evenodd"/><path d="M1.52.34V10h.44c.04-.56.12-1.12.26-1.67.14-.57.32-1.11.54-1.63.22-.52.47-.98.75-1.41.28-.41.59-.75.92-1.01.24-.2.55-.39.93-.57.38-.19.84-.34 1.37-.45a8.5 8.5 0 0 1 1.84-.18h7.27L.56 24.11l.07.21h22.09v-11.1h-.44c-.04.63-.1 1.27-.19 1.91-.1.65-.23 1.27-.4 1.88-.18.62-.4 1.18-.68 1.71-.27.52-.6.97-1 1.35-.49.46-1.02.8-1.57 1.02-.55.21-1.1.35-1.65.41-.55.06-1.07.08-1.57.08H7.68L22.89.54l-.17-.2H1.52Zm28.09 20.14c0 .28-.01.57-.04.86-.03.3-.11.6-.23.88-.12.29-.32.56-.59.8-.26.21-.54.37-.87.48-.32.12-.65.19-.99.24-.34.05-.67.08-.98.1l-.59.03v.45h24.05V13.9h-.44l-.11 1.07c-.05.56-.13 1.12-.23 1.69a7.28 7.28 0 0 1-.52 1.64c-.24.54-.6 1.03-1.06 1.5-.14.14-.36.32-.63.52s-.62.39-1.05.58c-.43.2-.94.36-1.54.48-.6.13-1.3.19-2.09.2h-7.85V4.17c0-.2.01-.45.04-.74.03-.3.11-.61.23-.93.13-.32.32-.6.59-.86.25-.22.53-.38.86-.49.33-.11.67-.19 1.01-.24.35-.04.67-.08.97-.09l.59-.04V.34H25.32v.44l.59.04c.3.01.63.05.97.09.35.05.68.13 1.01.24.33.11.62.27.86.49.27.26.47.54.59.86.12.32.2.63.23.93.03.29.04.54.04.74v16.31ZM62.01 0l-7.46 18.01c-.26.59-.48 1.09-.69 1.51-.21.41-.38.75-.54 1.02-.15.27-.28.49-.38.66-.11.18-.27.41-.46.66-.18.25-.42.5-.72.77-.28.25-.62.49-1.03.69-.4.21-.86.36-1.39.45l-.65.1v.45h12.3v-.45l-.86-.07c-.34-.02-.7-.08-1.08-.17-.38-.09-.74-.23-1.08-.42-.35-.19-.63-.43-.86-.74-.18-.26-.3-.56-.38-.92-.07-.34-.09-.7-.06-1.08.03-.36.11-.7.24-1.02l1.3-3.18h8.77l1.54 3.77c.09.21.17.43.24.69.06.25.1.5.1.74 0 .51-.1.92-.29 1.21-.19.31-.44.53-.73.68-.16.09-.35.16-.56.22-.22.06-.48.11-.8.15-.32.04-.72.07-1.18.11l-.51.03v.45h13.43v-.45l-.55-.03c-.41-.03-.81-.09-1.2-.21-.39-.11-.75-.25-1.09-.42-.33-.17-.61-.37-.83-.57-.2-.2-.39-.46-.58-.78-.18-.33-.39-.76-.62-1.29-.23-.53-.52-1.21-.85-2.04L64.92 0h-2.91Zm4.11 13.87h-7.05l3.49-8.43h.07l3.49 8.43ZM88.56 3.08h2.54c.2-.01.45 0 .75.03.3.02.63.07.98.15.36.07.71.19 1.06.35.36.16.7.39 1.01.67.28.26.54.61.78 1.05.22.44.43.92.6 1.45.18.54.32 1.08.43 1.63.11.55.18 1.07.21 1.55h.45V.34H75.51v9.62h.45c.03-.48.1-1 .21-1.55.11-.55.25-1.09.42-1.63.18-.53.38-1.01.62-1.45.22-.44.48-.79.77-1.05.31-.28.64-.51 1-.67.36-.16.71-.28 1.06-.35.36-.08.68-.13.99-.15.3-.03.55-.04.75-.03h2.53v17.4c.01.2 0 .45-.04.75-.02.3-.1.6-.22.92-.12.32-.32.61-.59.87-.25.21-.53.37-.86.48-.33.12-.67.19-1.01.24-.35.05-.67.07-.98.1l-.58.03v.45h12.81v-.45l-.58-.03c-.3-.03-.63-.05-.97-.1a5.21 5.21 0 0 1-1.02-.24c-.32-.11-.61-.27-.85-.48a2.49 2.49 0 0 1-.59-.87c-.12-.32-.2-.62-.23-.92-.03-.3-.04-.55-.04-.75V3.08ZM132.2.34h-10.27l-6.41 16.27h-.1L109.01.34H98.33v.44l.58.04c.3.01.63.05.97.09.35.05.68.13 1.01.24.33.11.62.27.86.49.27.26.47.54.59.86.12.32.2.63.23.93.03.29.04.54.04.74V19.8c0 .26-.01.58-.05.95-.03.38-.11.76-.24 1.15-.12.38-.31.7-.57.98-.22.22-.51.39-.84.53a6.27 6.27 0 0 1-2 .43l-.58.03v.45h11.54v-.45l-.58-.03c-.28-.01-.6-.05-.96-.12-.36-.07-.7-.17-1.04-.31-.34-.14-.62-.31-.85-.53-.2-.21-.36-.46-.48-.74-.12-.29-.2-.58-.25-.88-.05-.3-.09-.58-.1-.84-.02-.26-.02-.46-.02-.62V3.66h.1l8.15 20.66h1.58l8.15-20.66h.11v16.82c0 .2-.01.45-.04.75s-.11.6-.23.92c-.12.32-.32.61-.59.87-.25.21-.53.37-.86.48-.33.12-.67.19-1.01.24-.35.05-.67.07-.97.1l-.59.03v.45h12.81v-.45l-.58-.03c-.3-.03-.63-.05-.97-.1-.35-.05-.68-.12-1.01-.24-.33-.11-.62-.27-.86-.48a2.49 2.49 0 0 1-.59-.87c-.12-.32-.2-.62-.23-.92-.03-.3-.04-.55-.04-.75V4.17c0-.2.01-.45.04-.74.03-.3.11-.61.23-.93.13-.32.32-.6.59-.86.24-.22.53-.38.86-.49.33-.11.66-.19 1.01-.24.34-.04.67-.08.97-.09l.58-.04V.34ZM144.78 0l-7.47 18.01c-.25.59-.48 1.09-.69 1.51-.2.41-.38.75-.53 1.02l-.39.66c-.11.18-.26.41-.45.66-.19.25-.43.5-.72.77-.29.25-.63.49-1.03.69-.4.21-.87.36-1.4.45l-.65.1v.45h12.3v-.45l-.86-.07c-.33-.02-.69-.08-1.08-.17-.38-.09-.74-.23-1.08-.42-.34-.19-.63-.43-.85-.74-.18-.26-.31-.56-.38-.92a3.5 3.5 0 0 1-.06-1.08c.03-.36.11-.7.23-1.02l1.3-3.18h8.77l1.54 3.77c.1.21.17.43.24.69.07.25.1.5.11.74-.01.51-.1.92-.3 1.21-.19.31-.43.53-.73.68-.15.09-.34.16-.56.22-.22.06-.48.11-.8.15-.32.04-.71.07-1.17.11l-.52.03v.45h13.43v-.45l-.55-.03c-.4-.03-.8-.09-1.2-.21-.39-.11-.75-.25-1.08-.42-.34-.17-.61-.37-.84-.57-.19-.2-.39-.46-.57-.78-.19-.33-.4-.76-.63-1.29-.23-.53-.51-1.21-.85-2.04L147.69 0h-2.91Zm4.11 13.87h-7.06l3.5-8.43h.06l3.5 8.43ZM159.75.34v.44l.65.14c.42.1.84.28 1.28.54.44.26.86.57 1.27.92.41.34.77.69 1.08 1.04l7.91 8.8-6.68 7.78c-.11.14-.28.31-.48.52-.21.21-.44.42-.68.65-.24.22-.47.42-.69.61-.22.19-.4.34-.55.45-.53.39-1.11.73-1.74 1.01-.62.28-1.24.49-1.85.63v.45h13.46v-.45l-.82-.07c-.65-.05-1.14-.13-1.5-.21-.35-.1-.58-.16-.69-.2-.25-.09-.48-.2-.69-.36-.22-.15-.4-.33-.54-.57-.14-.24-.21-.53-.21-.88 0-.27.08-.55.21-.85.14-.3.3-.57.47-.82.18-.25.33-.45.45-.59l4.35-5.07 4.69 5.17c.25.26.48.54.69.81.22.29.4.58.54.87.14.29.2.59.21.89-.01.33-.1.61-.28.84-.18.21-.42.39-.71.53-.32.15-.68.27-1.09.34-.4.07-.81.12-1.21.14l-.99.03v.45H190v-.45a5.71 5.71 0 0 1-1.23-.29 6.15 6.15 0 0 1-1.41-.7c-.62-.44-1.23-.96-1.81-1.57a71.38 71.38 0 0 1-1.82-2.03l-7.3-8.15 4.62-5.35c.34-.38.68-.78 1.05-1.22.37-.43.76-.85 1.19-1.27.41-.41.87-.78 1.36-1.1.3-.2.64-.39 1.01-.56.37-.18.76-.33 1.16-.46.4-.13.79-.23 1.19-.28l.68-.11V.34h-13.77v.44l.86.07c.63.05 1.14.14 1.54.27.4.13.71.28.93.45.25.19.43.39.53.62.11.24.16.49.15.79 0 .34-.05.64-.15.91-.09.27-.2.51-.34.71-.14.21-.27.39-.4.53l-3.43 4.01-4.86-5.41c-.18-.21-.31-.39-.38-.55a.959.959 0 0 1-.1-.44c-.01-.27.06-.52.2-.78.14-.25.39-.47.76-.66.18-.08.38-.16.62-.22s.49-.11.73-.15c.25-.04.47-.07.67-.08l.79-.07V.34h-13.29ZM.49 35.61c.14-.09.31-.18.48-.26.18-.07.37-.14.57-.19.2-.04.4-.07.6-.07.29 0 .53.05.74.15.22.09.38.23.5.42.12.19.18.42.18.69 0 .2-.05.39-.14.57-.1.17-.23.32-.4.46-.17.13-.37.23-.59.31-.23.07-.47.11-.73.11h-.46v.78h.47c.2 0 .4.01.61.04.2.03.4.08.58.15.18.07.35.16.49.28.14.12.26.26.34.44.08.17.12.37.12.61 0 .29-.07.55-.2.77-.15.23-.35.41-.62.54-.27.12-.59.19-.98.19-.22 0-.44-.02-.66-.07-.22-.04-.42-.1-.61-.17-.2-.08-.37-.16-.52-.24l-.26.8c.3.18.63.31.99.39.35.09.71.13 1.07.12.29 0 .57-.02.85-.08.28-.05.54-.14.78-.25.25-.12.46-.27.65-.45.18-.18.33-.39.43-.64.11-.26.16-.55.16-.87 0-.39-.09-.72-.26-1s-.39-.51-.68-.67a2.46 2.46 0 0 0-.99-.32v-.02c.31-.07.58-.2.83-.38.24-.18.44-.4.58-.67.14-.26.21-.56.22-.89-.01-.41-.1-.75-.3-1.04-.19-.29-.46-.51-.81-.66-.35-.15-.75-.23-1.21-.23-.44 0-.83.06-1.17.16-.35.11-.65.26-.92.44l.27.75Zm6.36-1.21v3.33c0 .32-.01.65-.02.98-.02.34-.05.66-.09.98-.05.31-.12.6-.21.85-.1.26-.22.46-.38.62-.09.09-.22.18-.36.26-.15.08-.31.13-.47.16l.13.82c.15 0 .3-.02.46-.06.14-.03.28-.08.42-.14.13-.05.24-.11.34-.18.22-.15.4-.34.55-.57.14-.24.26-.5.34-.8.09-.29.15-.61.19-.94.05-.33.07-.67.09-1.02.01-.35.02-.7.01-1.04v-2.39h2.61v7.05h1.03V34.4H6.85Zm10.49 5.42.85 2.49h1.09l-2.7-7.91h-1.22l-2.7 7.91h1.06l.82-2.49h2.8Zm-2.59-.8.78-2.29c.08-.24.15-.48.21-.72.07-.24.13-.48.19-.71h.02c.06.23.12.46.18.7.07.24.14.49.23.74l.79 2.28h-2.4Zm7.19 3.29h1.04v-7.04h2.41v-.87h-5.85v.87h2.4v7.04Zm7.52-8.05c-.53 0-1.02.1-1.46.29-.45.2-.83.48-1.16.84-.33.37-.58.8-.76 1.31a5.11 5.11 0 0 0-.28 1.71c0 .6.09 1.15.26 1.64s.42.91.73 1.27c.32.36.69.63 1.13.82.43.19.91.29 1.44.29.4 0 .79-.05 1.15-.17.37-.11.71-.29 1.01-.51.31-.23.57-.51.8-.84.22-.34.4-.73.52-1.17.12-.44.19-.93.19-1.47 0-.59-.09-1.13-.25-1.62-.17-.49-.41-.91-.72-1.27a3.22 3.22 0 0 0-1.13-.83c-.43-.19-.92-.29-1.47-.29Zm-.03.83c.34 0 .64.06.91.18s.51.29.71.5c.2.21.37.45.5.73.14.27.24.56.3.87a4.751 4.751 0 0 1-.07 2.22c-.11.39-.27.74-.49 1.04-.22.3-.48.54-.8.71a2.2 2.2 0 0 1-1.07.26c-.33 0-.62-.06-.89-.17-.27-.11-.5-.27-.71-.47-.2-.2-.37-.44-.51-.71-.14-.27-.25-.56-.32-.88a4.807 4.807 0 0 1-.01-1.99c.07-.32.17-.62.31-.9.13-.27.3-.52.51-.73a2.254 2.254 0 0 1 1.63-.66Zm4.06-.69 2.62 5.35c.05.09.08.17.09.24.01.07-.01.15-.05.24-.07.14-.14.29-.24.45-.09.15-.2.3-.33.43-.13.14-.27.25-.43.34-.16.08-.35.13-.55.13-.09 0-.16 0-.22-.01-.07-.01-.12-.02-.17-.03l-.09.84c.06.02.14.04.23.05.1.01.21.02.34.02a2 2 0 0 0 .97-.25c.29-.16.57-.4.82-.73.14-.18.28-.39.41-.62.13-.24.26-.49.38-.75s.24-.53.36-.81l.33-.81 1.66-4.08h-1.08l-1.24 3.35c-.09.28-.18.54-.26.78-.08.23-.15.45-.22.64h-.04c-.09-.23-.18-.45-.27-.68-.09-.23-.19-.47-.29-.7l-1.57-3.39h-1.16Zm12.29 6.84c-.14.06-.3.12-.48.17-.18.05-.37.09-.57.12-.21.02-.41.04-.63.04-.64-.01-1.18-.14-1.63-.39-.45-.26-.8-.63-1.03-1.1-.24-.48-.36-1.04-.36-1.69 0-.52.07-.98.22-1.39.14-.4.35-.74.62-1.02s.6-.49.98-.64c.38-.14.8-.21 1.26-.21.33 0 .63.03.9.09s.5.14.68.23l.26-.83c-.09-.05-.22-.1-.39-.15-.17-.06-.38-.1-.62-.14-.25-.04-.54-.06-.86-.06-.62 0-1.18.1-1.68.3-.51.2-.94.48-1.31.84-.36.37-.64.81-.84 1.31-.2.51-.3 1.08-.3 1.7 0 .65.1 1.23.29 1.73.2.5.47.92.82 1.25.35.34.76.6 1.23.77.47.18.99.26 1.55.26.32 0 .62-.02.89-.05.27-.04.51-.08.71-.14.2-.06.37-.12.49-.18l-.2-.82Zm2.99 1.07h1.03v-7.04h2.42v-.87h-5.85v.87h2.4v7.04Zm7.52-8.05c-.53 0-1.02.1-1.46.29-.45.2-.83.48-1.16.84-.33.37-.58.8-.76 1.31-.19.51-.28 1.08-.28 1.71 0 .6.09 1.15.26 1.64s.41.91.73 1.27c.31.36.69.63 1.12.82.44.19.92.29 1.44.29.41 0 .8-.05 1.16-.17.37-.11.7-.29 1.01-.51.3-.23.57-.51.79-.84.23-.34.41-.73.53-1.17.12-.44.18-.93.19-1.47-.01-.59-.09-1.13-.26-1.62-.16-.49-.4-.91-.71-1.27a3.22 3.22 0 0 0-1.13-.83c-.43-.19-.93-.29-1.47-.29Zm-.03.83c.34 0 .64.06.91.18s.51.29.71.5c.2.21.37.45.5.73.13.27.23.56.3.87.06.31.1.63.1.95 0 .45-.06.87-.17 1.27-.11.39-.28.74-.49 1.04-.22.3-.48.54-.8.71-.31.17-.67.26-1.08.26-.32 0-.62-.06-.88-.17-.27-.11-.5-.27-.71-.47-.2-.2-.38-.44-.51-.71-.14-.27-.25-.56-.32-.88a4.807 4.807 0 0 1-.01-1.99c.07-.32.17-.62.31-.9.13-.27.3-.52.5-.73.21-.2.45-.37.72-.48.27-.12.57-.18.92-.18Zm4.92 7.19c.17.03.39.05.66.07.26.01.57.02.93.03.64 0 1.19-.06 1.64-.18.45-.13.81-.31 1.08-.56.2-.19.37-.42.49-.68.12-.26.19-.57.19-.91 0-.29-.06-.55-.15-.78-.1-.22-.23-.42-.39-.58-.16-.16-.33-.29-.52-.39-.19-.1-.38-.17-.57-.22v-.03c.27-.1.51-.24.71-.41.2-.17.35-.37.46-.6.11-.23.16-.47.16-.73 0-.31-.06-.58-.18-.82a1.68 1.68 0 0 0-.48-.58c-.16-.13-.34-.24-.55-.32-.2-.09-.44-.15-.71-.19a5.98 5.98 0 0 0-.9-.06c-.24 0-.47.01-.7.02-.23.02-.44.04-.64.06-.2.03-.38.06-.53.1v7.76Zm1.02-7.08c.08-.02.19-.04.34-.05.14-.02.33-.02.57-.02.34-.01.65.04.9.13.26.08.46.22.6.42.15.18.22.43.22.74 0 .25-.07.48-.2.68-.14.2-.33.36-.59.48-.25.11-.55.17-.91.17h-.93V35.2Zm0 3.32h.85c.28 0 .54.03.79.08.24.06.46.15.65.28.18.12.33.28.44.47.1.19.16.43.16.69 0 .29-.06.53-.17.73-.11.19-.26.35-.45.47s-.41.21-.65.26c-.24.05-.5.08-.76.08-.18 0-.34-.01-.49-.01-.14-.01-.26-.02-.37-.04v-3.01Zm10.65 2.72c-.13.06-.29.12-.47.17-.18.05-.37.09-.58.12-.2.02-.41.04-.62.04-.64-.01-1.19-.14-1.64-.39-.45-.26-.79-.63-1.03-1.1-.24-.48-.36-1.04-.36-1.69 0-.52.08-.98.22-1.39.15-.4.36-.74.63-1.02s.59-.49.97-.64c.38-.14.8-.21 1.27-.21.33 0 .63.03.89.09.27.06.5.14.69.23l.26-.83c-.09-.05-.22-.1-.39-.15-.17-.06-.38-.1-.63-.14-.25-.04-.54-.06-.86-.06-.62 0-1.17.1-1.68.3-.5.2-.94.48-1.3.84-.37.37-.65.81-.85 1.31-.2.51-.3 1.08-.3 1.7 0 .65.1 1.23.3 1.73.19.5.46.92.81 1.25.35.34.76.6 1.24.77.47.18.98.26 1.55.26.32 0 .61-.02.88-.05.27-.04.51-.08.72-.14.2-.06.36-.12.48-.18l-.2-.82Zm1.49-6.84v7.91h1.02v-3.63h.33c.34 0 .62.04.86.13.24.08.44.2.61.36.16.15.3.34.42.55.12.22.22.46.31.72.07.21.15.42.22.64.07.22.15.43.23.64.09.21.18.4.27.59h1.1c-.12-.24-.22-.48-.31-.72-.1-.24-.19-.49-.28-.74-.09-.26-.18-.52-.28-.79-.1-.26-.21-.51-.33-.74-.12-.23-.27-.43-.44-.61-.17-.18-.37-.33-.61-.44-.23-.12-.51-.2-.84-.25l2.99-3.62h-1.22l-2.71 3.51h-.32V34.4h-1.02Zm6.36 0v7.91h1.09l2.48-3.95c.27-.43.53-.87.79-1.32.25-.45.48-.89.67-1.33l.04.01c-.03.33-.05.67-.06 1l-.03 1.04v4.55h.96V34.4h-1.02l-2.56 4.07c-.29.47-.55.92-.8 1.35-.24.43-.46.86-.65 1.27l-.04-.02c.02-.35.04-.7.05-1.06.02-.35.03-.72.04-1.09V34.4h-.96Zm11.8 3.35h-3.06v-2.49h3.25v-.86h-4.28v7.91h4.46v-.86h-3.43V38.6h3.06v-.85Zm66.34-3.35v7.91h1.03V38.6h3.82v3.71h1.03V34.4h-1.03v3.31h-3.82V34.4h-1.03Zm10.85-.14c-.53 0-1.02.1-1.47.29-.44.2-.83.48-1.16.84-.32.37-.58.8-.76 1.31-.18.51-.27 1.08-.27 1.71 0 .6.08 1.15.26 1.64.17.49.41.91.73 1.27.31.36.69.63 1.12.82.43.19.91.29 1.44.29.41 0 .79-.05 1.16-.17.36-.11.7-.29 1.01-.51.3-.23.57-.51.79-.84.23-.34.4-.73.52-1.17.13-.44.19-.93.19-1.47 0-.59-.08-1.13-.25-1.62-.17-.49-.4-.91-.72-1.27-.31-.36-.68-.63-1.12-.83-.44-.19-.93-.29-1.47-.29Zm-.04.83c.34 0 .65.06.92.18s.5.29.7.5c.21.21.37.45.51.73.13.27.23.56.3.87.06.31.09.63.09.95 0 .45-.05.87-.16 1.27-.12.39-.28.74-.5 1.04-.21.3-.48.54-.79.71-.32.17-.68.26-1.08.26-.33 0-.62-.06-.89-.17-.26-.11-.5-.27-.7-.47-.21-.2-.38-.44-.52-.71a3.99 3.99 0 0 1-.32-.88c-.07-.31-.1-.64-.1-.98 0-.35.03-.68.1-1.01.06-.32.17-.62.3-.9.14-.27.31-.52.51-.73.2-.2.44-.37.71-.48.28-.12.58-.18.92-.18Zm4.29-.69 2.8 3.64c-.31.03-.57.11-.8.22-.22.11-.42.25-.58.43-.16.18-.3.38-.42.61-.12.24-.23.5-.33.78-.08.24-.16.49-.24.74-.08.25-.17.5-.25.75-.09.25-.19.49-.3.74h1.04c.09-.18.16-.38.24-.6.07-.21.14-.43.21-.64.06-.22.13-.43.19-.62.1-.27.2-.51.3-.73.11-.22.24-.4.39-.56.14-.15.33-.27.55-.35.21-.09.48-.13.79-.13h.37v3.63h.98v-3.63h.36c.31 0 .58.04.79.13.22.08.41.2.55.35.15.16.28.34.39.56.1.22.2.46.29.73.07.19.13.4.2.62.06.21.13.43.2.64.08.22.16.42.25.6h1.04c-.1-.25-.2-.49-.29-.74l-.24-.75c-.07-.25-.16-.5-.24-.76-.1-.28-.21-.54-.33-.77-.12-.24-.26-.44-.43-.62-.16-.17-.36-.32-.58-.43-.23-.1-.5-.18-.81-.2l2.81-3.64h-1.19l-2.45 3.51h-.32V34.4h-.98v3.51h-.32l-2.45-3.51h-1.19Zm10.03 0v7.91h1.1l2.47-3.95c.27-.43.54-.87.79-1.32.25-.45.48-.89.68-1.33l.03.01c-.03.33-.04.67-.06 1l-.03 1.04v4.55h.96V34.4h-1.02l-2.56 4.07c-.28.47-.55.92-.8 1.35-.24.43-.46.86-.65 1.27l-.04-.02c.03-.35.04-.7.06-1.06l.03-1.09c0-.38.01-.78.01-1.19V34.4h-.97Z" fill="#1F1C21"/></svg><svg fill="none" viewBox="0 0 59 11" id="logo-icon" xmlns="http://www.w3.org/2000/svg"><path d="M-.09 6.35s1.13-.55 3.1-1.28c1.02.49 3.25 1.5 5.41 2.12 2.93.85 4.87.72 7.6.72 2.73 0 6.63-.46 6.63-.46s-.59-2.14-.65-3.7c-.07-1.56-.07-1.82-.07-1.82s-.58 2.21-.45 3.38c.13 1.17.13 1.56.13 1.56s-5.13.52-8.77.13c-3.64-.39-5.85-.78-7.41-1.3-.85-.29-1.67-.53-2.24-.7a63.06 63.06 0 0 1 12.25-3.13C24.53.5 22.71.96 22.71.96s.2-.39 1.37-.52C25.25.31 37.2-.28 40.9-.02c3.7.26 13.9.78 15.4 1.76 1.49.97 2.08 1.95 1.62 4.35-.45 2.4-1.36 4.74-2.21 4.22-.84-.52-3.7-2.73-6.43-3.12-2.73-.39-5.71-.32-6.95 0-1.23.33-3.31 1.63-4.29 1.3-.97-.32-2.92-2.14-4.48-1.49-1.56.65-1.62.84-2.34 1.75-.71.91-1.69 1.95-2.47.98-.77-.98-2.2-1.43-3.44-1.5-1.23-.06-2.34.33-2.66.65-.33.33-.78.98-.78.98s-2.01-.52-4.35-.26-6.37.45-9.1-.07C5.69 9.01-.09 6.35-.09 6.35Zm24.56.78s2.6-.46 3.57.26c.97.71 1.17 1.3 2.92-.13 1.76-1.43 2.86-2.47 4.81-1.43 1.95 1.04 2.86 1.69 4.74.71 1.89-.97 5.98-2.01 9.42-.58 3.44 1.43 6.11 3.7 6.63 2.27.52-1.43.78-2.99-1.89-3.57-2.66-.58-6.62-1.23-10.26-.65-3.64.58-4.29 2.27-5.78 1.82-1.5-.46-3.12-1.82-4.94-1.11-1.82.72-3.38 2.93-4.87 2.21-1.49-.71-2.53-1.36-3.44-.91-.91.46-.91 1.11-.91 1.11Z" fill="#1F1C21" fill-rule="evenodd"/></svg><svg fill="none" viewBox="0 0 6 11" id="next-icon" xmlns="http://www.w3.org/2000/svg"><path d="m-.75.74.82-.82L5.15 5 .07 10.07l-.82-.82L3.5 5-.75.74Z" fill="#FFF" fill-rule="evenodd"/></svg><svg fill="none" viewBox="0 0 19 18" id="product-card__btn-icon" xmlns="http://www.w3.org/2000/svg"><path d="M4.14 3.42h12.55c.66 0 1.13.62.96 1.26l-.68 2.49a2.995 2.995 0 0 1-2.89 2.22H5.24M0 0h2c.97 0 1.81.7 1.97 1.66l1.5 8.86c.16.96 1 1.67 1.97 1.67h8.93" stroke="#FFF" stroke-width="1.5"/><ellipse cx="7.879" cy="15.699" rx=".963" ry=".92" stroke="#FFF" stroke-width="1.5"/><ellipse cx="15.414" cy="15.699" rx=".963" ry=".92" stroke="#FFF" stroke-width="1.5"/></svg><svg fill="none" viewBox="0 0 26 25" id="product-card__compare" xmlns="http://www.w3.org/2000/svg"><path d="m25.95 12.52-.02.01-3.73-9.28h1.7c.31 0 .55-.25.55-.55a.55.55 0 0 0-.55-.56H13.5V.55c0-.31-.25-.55-.55-.55-.31 0-.55.24-.55.55v1.59H2c-.3 0-.55.25-.55.55 0 .31.25.55.55.55h1.77L.04 12.52c-.03.07-.04.14-.04.21a4.59 4.59 0 1 0 9.18 0c0-.07-.01-.14-.04-.21L5.41 3.24h6.99v17.09c-2.64.19-4.7 1.8-4.7 3.74 0 .3.25.55.55.55h9.4c.3 0 .55-.25.55-.55 0-1.94-2.06-3.55-4.7-3.74V3.24h7.06l-3.71 9.28c-.03.07-.04.14-.04.21a4.59 4.59 0 0 0 4.59 4.59c2.54 0 4.6-2.06 4.6-4.59-.01-.07-.02-.14-.05-.21ZM4.59 16.23a3.518 3.518 0 0 1-3.45-2.94h6.87a3.505 3.505 0 0 1-3.42 2.94Zm3.22-4.04H1.38L4.6 4.17l3.21 8.02Zm9.18 11.32H8.9c.41-1.18 2.09-2.1 4.04-2.1 1.95 0 3.64.92 4.05 2.1Zm4.39-19.34 3.21 8.02h-6.44l3.23-8.02Zm0 12.06a3.499 3.499 0 0 1-3.43-2.94h6.87a3.508 3.508 0 0 1-3.44 2.94Z" fill="#000"/></svg><svg fill="none" viewBox="0 0 28 25" id="product-card__favorite" xmlns="http://www.w3.org/2000/svg"><path d="M20.1 0c-2.39 0-4.62 1-6.1 2.69C12.51 1 10.28 0 7.89 0 3.54 0 0 3.31 0 7.38c0 3.19 2.03 6.88 6.04 10.96 3.09 3.15 6.44 5.58 7.4 6.25l.55.39.56-.39c.96-.67 4.31-3.1 7.4-6.25C25.96 14.26 28 10.57 28 7.38 28 3.31 24.45 0 20.1 0Zm.49 17.17c-2.54 2.59-5.27 4.68-6.6 5.64-1.32-.96-4.05-3.05-6.59-5.64-3.64-3.7-5.56-7.09-5.56-9.79 0-3.12 2.72-5.66 6.05-5.66 2.2 0 4.23 1.12 5.3 2.92L14 6l.8-1.36c1.07-1.8 3.1-2.92 5.3-2.92 3.33 0 6.05 2.54 6.05 5.66 0 2.7-1.92 6.09-5.56 9.79Z" fill="#E8AA31"/></svg><svg viewBox="0 0 22 28" id="profile-icon" xmlns="http://www.w3.org/2000/svg"><path d="M10.59 14.31H10.76c1.52-.03 2.75-.62 3.66-1.75 2.01-2.49 1.67-6.75 1.64-7.16-.13-3.05-1.44-4.51-2.53-5.19-.8-.51-1.74-.79-2.8-.81h-.08c-.58 0-1.72.1-2.8.79-1.1.68-2.43 2.14-2.56 5.21-.03.41-.37 4.67 1.64 7.16.9 1.13 2.13 1.72 3.66 1.75ZM6.68 5.55c0-.02.01-.04.01-.05C6.86 1.39 9.51.95 10.64.95h.06c1.41.04 3.8.67 3.96 4.55v.05c.01.04.37 3.93-1.28 5.98-.66.82-1.53 1.22-2.68 1.23h-.05c-1.15-.01-2.03-.41-2.68-1.23-1.65-2.04-1.29-5.95-1.29-5.98Z"/><path d="M21.36 21.38v-.16c-.03-1.14-.1-3.79-2.36-4.64-.01 0-.04-.01-.05-.02-2.35-.66-4.3-2.14-4.32-2.16-.32-.25-.75-.16-.98.19-.22.35-.14.83.17 1.07.09.07 2.16 1.66 4.75 2.39 1.22.48 1.35 1.9 1.39 3.21v.14c.01.52-.02 1.32-.11 1.77-.84.53-4.14 2.35-9.17 2.35-5 0-8.33-1.82-9.17-2.35-.09-.46-.12-1.26-.11-1.77v-.14c.04-1.31.17-2.74 1.39-3.21 2.59-.74 4.66-2.33 4.75-2.39a.84.84 0 0 0 .17-1.08c-.23-.35-.66-.43-.98-.19-.02.02-1.96 1.51-4.32 2.17-.02 0-.04.01-.05.02C.1 17.43.03 20.08 0 21.21v.16c-.01.3-.01 1.83.26 2.59.05.15.15.28.27.37.16.11 3.9 2.73 10.16 2.73s10-2.63 10.15-2.73c.12-.09.22-.22.27-.37.26-.76.26-2.29.25-2.58Z"/></svg><svg fill="none" viewBox="0 0 13 12" id="search-icon" xmlns="http://www.w3.org/2000/svg"><circle cx="4.5" cy="4.5" r="4"/><path d="m7.355 6.648 4.655 4.618"/></svg><svg viewBox="0 0 37 36" id="shop-basket-icon" xmlns="http://www.w3.org/2000/svg"><path d="M7.12 9.76h22.59c.65 0 1.13.62.97 1.25l-1.9 7.44a3.008 3.008 0 0 1-2.91 2.25H9.02M0 3.49h4.65c.98 0 1.82.72 1.97 1.69l3.02 18.97c.16.97.99 1.69 1.98 1.69H28.2" stroke="#000" stroke-width="1.5"/><ellipse cx="13.569" cy="32.266" rx="2.199" ry="2.31" stroke="#000" stroke-width="1.5"/><ellipse cx="26.546" cy="32.266" rx="2.199" ry="2.31" stroke="#000" stroke-width="1.5"/><circle cx="30" cy="7" r="7"/><path d="M28.79 9.88q.4.18.88.18.44 0 .83-.16.17-.07.34-.18l.06-.04q.47-.34.75-.95.3-.65.3-1.54 0-.88-.3-1.53-.28-.61-.75-.95l-.06-.04q-.17-.11-.34-.18-.39-.16-.83-.16-.48 0-.88.18-.16.06-.3.16l-.06.04q-.47.34-.76.95-.29.65-.29 1.53 0 .89.29 1.54.29.61.76.95l.06.04q.14.1.3.16Zm1.46-.66q-.26.13-.58.13-.34 0-.61-.14-.27-.14-.48-.41-.4-.56-.4-1.61 0-1.04.4-1.59.21-.28.49-.42.26-.14.6-.14.32 0 .58.13.28.14.49.43.41.55.41 1.59 0 1.05-.41 1.61-.21.28-.49.42Z" fill-rule="evenodd"/></svg><svg fill="none" viewBox="0 0 21 20" id="star" xmlns="http://www.w3.org/2000/svg"><path d="M10 0 7.53 7.6h-8L6 12.29l-2.47 7.6L10 15.2l6.46 4.69-2.47-7.6 6.47-4.69h-7.99L10 0Z" fill="#E8AA31"/></svg></svg>