<svg width="28" height="26.583" fill="none" xmlns="http://www.w3.org/2000/svg"><path id="Vector" d="M20.1 0c-2.39 0-4.62 1.07-6.1 2.87A7.927 7.927 0 007.89 0C3.54 0 0 3.52 0 7.85c0 3.39 2.03 7.32 6.04 11.66 3.09 3.35 6.44 5.94 7.4 6.65l.56.42.55-.42c.95-.71 4.31-3.3 7.4-6.64C25.96 15.17 28 11.24 28 7.85 28 3.52 24.45 0 20.1 0zm.49 18.27c-2.54 2.75-5.27 4.98-6.59 6-1.33-1.02-4.06-3.25-6.6-6-3.64-3.94-5.56-7.54-5.56-10.42 0-3.32 2.72-6.02 6.05-6.02 2.2 0 4.23 1.19 5.3 3.11L14 6.39l.8-1.45a6.068 6.068 0 015.3-3.11c3.33 0 6.05 2.7 6.05 6.02 0 2.88-1.92 6.48-5.56 10.42z" fill="#000" fill-opacity="1" fill-rule="nonzero"/></svg>